<svg xmlns="http://www.w3.org/2000/svg" xmlns:xlink="http://www.w3.org/1999/xlink" width="500" zoomAndPan="magnify" viewBox="0 0 375 374.999991" height="500" preserveAspectRatio="xMidYMid meet" version="1.0"><defs><clipPath id="321251c64d"><path d="M 45.375 229 L 132 229 L 132 329 L 45.375 329 Z M 45.375 229 " clip-rule="nonzero"/></clipPath><clipPath id="360809ec07"><path d="M 45.375 37.5 L 329.625 37.5 L 329.625 337.5 L 45.375 337.5 Z M 45.375 37.5 " clip-rule="nonzero"/></clipPath><clipPath id="cb47aa03e1"><path d="M 244 46 L 329.625 46 L 329.625 146 L 244 146 Z M 244 46 " clip-rule="nonzero"/></clipPath></defs><g clip-path="url(#321251c64d)"><path fill="#000000" d="M 131.011719 278.964844 L 45.480469 328.1875 L 45.480469 229.5625 Z M 131.011719 278.964844 " fill-opacity="1" fill-rule="nonzero"/></g><g clip-path="url(#360809ec07)"><path fill="#000000" d="M 329.519531 183.070312 L 329.519531 318.59375 L 297.695312 337.5 L 45.480469 191.929688 L 45.480469 56.40625 L 77.304688 37.5 L 329.519531 183.070312 " fill-opacity="1" fill-rule="nonzero"/></g><g clip-path="url(#cb47aa03e1)"><path fill="#000000" d="M 329.519531 46.777344 L 329.519531 145.433594 L 244.023438 96.035156 Z M 329.519531 46.777344 " fill-opacity="1" fill-rule="nonzero"/></g></svg>